<svg xmlns="http://www.w3.org/2000/svg" viewBox="0 0 800 380" width="100%"><defs><pattern id="corr" width="11" height="8" patternUnits="userSpaceOnUse" patternTransform="rotate(-2.4)"><rect width="11" height="8" fill="#F0E9DC"/><rect x="0" y="0" width="3" height="8" fill="#082F35" opacity=".07"/><rect x="6" y="0" width="1.2" height="8" fill="#082F35" opacity=".13"/></pattern><pattern id="corrE" width="9" height="8" patternUnits="userSpaceOnUse" patternTransform="rotate(16.8)"><rect width="9" height="8" fill="#F0E9DC"/><rect x="0" y="0" width="2.6" height="8" fill="#082F35" opacity=".1"/></pattern><linearGradient id="sideLight" x1="0" y1="0" x2="0" y2="1"><stop offset="0" stop-color="#fff" stop-opacity=".5"/><stop offset=".5" stop-color="#fff" stop-opacity="0"/><stop offset="1" stop-color="#082F35" stop-opacity=".26"/></linearGradient><radialGradient id="shadow" cx="50%" cy="50%" r="50%"><stop offset="0" stop-color="#052026" stop-opacity=".85"/><stop offset="1" stop-color="#052026" stop-opacity="0"/></radialGradient></defs><ellipse cx="420" cy="348" rx="360" ry="26" fill="url(#shadow)"/><polygon points="58,112 672,86 758,112 144,138" fill="#F0E9DC"/><polygon points="58,112 672,86 758,112 144,138" fill="#fff" opacity=".28"/><line x1="81.6" y1="111.0" x2="167.6" y2="137.0" stroke="#082F35" stroke-width="0.7" opacity=".12"/><line x1="105.2" y1="110.0" x2="191.2" y2="136.0" stroke="#082F35" stroke-width="0.7" opacity=".12"/><line x1="128.8" y1="109.0" x2="214.8" y2="135.0" stroke="#082F35" stroke-width="0.7" opacity=".12"/><line x1="152.5" y1="108.0" x2="238.5" y2="134.0" stroke="#082F35" stroke-width="0.7" opacity=".12"/><line x1="176.1" y1="107.0" x2="262.1" y2="133.0" stroke="#082F35" stroke-width="0.7" opacity=".12"/><line x1="199.7" y1="106.0" x2="285.7" y2="132.0" stroke="#082F35" stroke-width="0.7" opacity=".12"/><line x1="223.3" y1="105.0" x2="309.3" y2="131.0" stroke="#082F35" stroke-width="0.7" opacity=".12"/><line x1="246.9" y1="104.0" x2="332.9" y2="130.0" stroke="#082F35" stroke-width="0.7" opacity=".12"/><line x1="270.5" y1="103.0" x2="356.5" y2="129.0" stroke="#082F35" stroke-width="0.7" opacity=".12"/><line x1="294.2" y1="102.0" x2="380.2" y2="128.0" stroke="#082F35" stroke-width="0.7" opacity=".12"/><line x1="317.8" y1="101.0" x2="403.8" y2="127.0" stroke="#082F35" stroke-width="0.7" opacity=".12"/><line x1="341.4" y1="100.0" x2="427.4" y2="126.0" stroke="#082F35" stroke-width="0.7" opacity=".12"/><line x1="365.0" y1="99.0" x2="451.0" y2="125.0" stroke="#082F35" stroke-width="0.7" opacity=".12"/><line x1="388.6" y1="98.0" x2="474.6" y2="124.0" stroke="#082F35" stroke-width="0.7" opacity=".12"/><line x1="412.2" y1="97.0" x2="498.2" y2="123.0" stroke="#082F35" stroke-width="0.7" opacity=".12"/><line x1="435.8" y1="96.0" x2="521.8" y2="122.0" stroke="#082F35" stroke-width="0.7" opacity=".12"/><line x1="459.5" y1="95.0" x2="545.5" y2="121.0" stroke="#082F35" stroke-width="0.7" opacity=".12"/><line x1="483.1" y1="94.0" x2="569.1" y2="120.0" stroke="#082F35" stroke-width="0.7" opacity=".12"/><line x1="506.7" y1="93.0" x2="592.7" y2="119.0" stroke="#082F35" stroke-width="0.7" opacity=".12"/><line x1="530.3" y1="92.0" x2="616.3" y2="118.0" stroke="#082F35" stroke-width="0.7" opacity=".12"/><line x1="553.9" y1="91.0" x2="639.9" y2="117.0" stroke="#082F35" stroke-width="0.7" opacity=".12"/><line x1="577.5" y1="90.0" x2="663.5" y2="116.0" stroke="#082F35" stroke-width="0.7" opacity=".12"/><line x1="601.2" y1="89.0" x2="687.2" y2="115.0" stroke="#082F35" stroke-width="0.7" opacity=".12"/><line x1="624.8" y1="88.0" x2="710.8" y2="114.0" stroke="#082F35" stroke-width="0.7" opacity=".12"/><line x1="648.4" y1="87.0" x2="734.4" y2="113.0" stroke="#082F35" stroke-width="0.7" opacity=".12"/><polygon points="672,86 758,112 758,332 672,306" fill="url(#corrE)"/><polygon points="672,86 758,112 758,332 672,306" fill="#082F35" opacity=".3"/><line x1="715.0" y1="99.0" x2="715.0" y2="319.0" stroke="#082F35" stroke-width="1.6" opacity=".5"/><line x1="690.9" y1="97.7" x2="690.9" y2="305.7" stroke="#082F35" stroke-width="2.2" opacity=".45"/><circle cx="690.9" cy="201.7" r="3.2" fill="#082F35" opacity=".5"/><line x1="706.4" y1="102.4" x2="706.4" y2="310.4" stroke="#082F35" stroke-width="2.2" opacity=".45"/><circle cx="706.4" cy="206.4" r="3.2" fill="#082F35" opacity=".5"/><line x1="723.6" y1="107.6" x2="723.6" y2="315.6" stroke="#082F35" stroke-width="2.2" opacity=".45"/><circle cx="723.6" cy="211.6" r="3.2" fill="#082F35" opacity=".5"/><line x1="739.1" y1="112.3" x2="739.1" y2="320.3" stroke="#082F35" stroke-width="2.2" opacity=".45"/><circle cx="739.1" cy="216.3" r="3.2" fill="#082F35" opacity=".5"/><polygon points="58,112 672,86 672,306 58,332" fill="url(#corr)"/><polygon points="58,112 672,86 672,306 58,332" fill="url(#sideLight)"/><polygon points="58,112 672,86 672,99 58,125" fill="#082F35" opacity=".16"/><polygon points="58,319 672,293 672,306 58,332" fill="#082F35" opacity=".16"/><g transform="rotate(-2.42 365 209)"><text x="92" y="228" font-family="Archivo, Arial Black, sans-serif" font-weight="900" font-size="104" letter-spacing="-4" fill="#082F35">SENTRY</text><text x="96" y="264" font-family="DM Mono, monospace" font-size="12.5" letter-spacing="4.5" fill="#082F35" opacity=".62">AI CARGO INTELLIGENCE</text><rect x="96" y="240" width="172" height="5" fill="#FFA33C"/><text x="480" y="284" font-family="DM Mono, monospace" font-size="8" letter-spacing="1.2" fill="#082F35" opacity=".5">MAX GROSS 30,480 KG</text><text x="480" y="296" font-family="DM Mono, monospace" font-size="8" letter-spacing="1.2" fill="#082F35" opacity=".5">TARE 3,740 KG  ·  CU CAP 33.2 M3</text><text x="92" y="134" font-family="DM Mono, monospace" font-size="10" letter-spacing="2" fill="#082F35" opacity=".55">MSKU 447128 0</text><rect x="474" y="120" width="52" height="34" fill="none" stroke="#082F35" stroke-width="1.2" opacity=".4"/><text x="500" y="141" text-anchor="middle" font-family="DM Mono, monospace" font-size="9" fill="#082F35" opacity=".5">45G1</text></g><polygon points="58,112 672,86 672,306 58,332" fill="none" stroke="#082F35" stroke-width="2" opacity=".55"/><polygon points="672,86 758,112 758,332 672,306" fill="none" stroke="#082F35" stroke-width="2" opacity=".45"/><polygon points="58,112 672,86 758,112 144,138" fill="none" stroke="#082F35" stroke-width="1.6" opacity=".35"/><rect x="55" y="108" width="13" height="9" fill="#082F35" opacity=".6" rx="1"/><rect x="669" y="82" width="13" height="9" fill="#082F35" opacity=".6" rx="1"/><rect x="55" y="328" width="13" height="9" fill="#082F35" opacity=".6" rx="1"/><rect x="669" y="302" width="13" height="9" fill="#082F35" opacity=".6" rx="1"/><g clip-path="url(#sideClip)"><rect x="40" y="70" width="16" height="280" fill="#FFA33C" opacity=".55"><animate attributeName="x" values="40;700;40" dur="5s" keyTimes="0;0.5;1" calcMode="spline" keySplines="0.4 0 0.6 1;0.4 0 0.6 1" repeatCount="indefinite"/></rect></g><defs><clipPath id="sideClip"><polygon points="58,112 672,86 672,306 58,332"/></clipPath></defs></svg>